<svg id="Layer_1" data-name="Layer 1" xmlns="http://www.w3.org/2000/svg" viewBox="0 0 645.7199 83.7936">
  <g>
    <polygon id="fullLogo" points="67.899 0 67.899 26.97 30.811 26.97 30.811 53.939 0 53.939 0 83.794 154.201 83.794 154.201 0 67.899 0" style="fill: #185b78"/>
    <g id="type">
      <path id="type_CompoundPathItem_" data-name="type &lt;CompoundPathItem&gt;" d="M190.7836,39.9455V.5619h7.99V32.6312H212.67v7.3143Z" style="fill: #185b78"/>
      <path id="type_CompoundPathItem_2" data-name="type &lt;CompoundPathItem&gt;" d="M219.7032,39.9455V.5619h23.9677V7.7075H227.6931v7.8771h11.1954v7.0887H227.6931V32.8h15.9778v7.1456Z" style="fill: #185b78"/>
      <path id="type_CompoundPathItem_3" data-name="type &lt;CompoundPathItem&gt;" d="M275.0115,26.9487a21.4109,21.4109,0,0,1-1.2394,4.5578l-3.2615,8.439h-7.4829L247.8923.5619h7.8761L266.01,27.23a24.5453,24.5453,0,0,1,1.2376,4.5578,21.3657,21.3657,0,0,1,1.1816-4.5009l2.6428-6.7514L263.365.5619H270.79l3.0957,8.2144a26.0549,26.0549,0,0,1,1.1816,4.3882,21.4984,21.4984,0,0,1,1.1816-4.3882L279.3428.5619h7.427l-7.7084,19.9737,2.6446,6.7514a21.4825,21.4825,0,0,1,1.1816,4.5009,20.7157,20.7157,0,0,1,1.2376-4.5578L294.3645.5619h7.8762L287.1071,39.9455h-7.4829l-3.2634-8.439a21.5091,21.5091,0,0,1-1.2375-4.5578Z" style="fill: #185b78"/>
      <path id="type_CompoundPathItem_4" data-name="type &lt;CompoundPathItem&gt;" d="M307.4778,39.9455V33.3068h4.8942V7.2574h-4.8942V.5619h17.8341V7.2574h-4.8942V33.3068h4.8942v6.6387Z" style="fill: #185b78"/>
      <path id="type_CompoundPathItem_5" data-name="type &lt;CompoundPathItem&gt;" d="M331.2218,32.9127l6.469-4.6137c1.5749,3.0947,4.0518,4.7264,6.92,4.7264A4.111,4.111,0,0,0,349,28.8618c0-5.8512-15.1913-8.1016-15.1913-18.7352C333.8087,4.1627,338.8724,0,344.4431,0a11.1428,11.1428,0,0,1,9.7884,5.2324L348.83,10.0148c-1.012-1.52-2.4192-2.7006-4.05-2.7006a2.778,2.778,0,0,0-2.87,2.8693c0,4.951,15.1354,7.4819,15.1354,18.5656,0,6.7514-5.1774,11.7024-12.4907,11.7024C338.9843,40.4515,333.8646,38.1451,331.2218,32.9127Z" style="fill: #185b78"/>
      <path id="type_CompoundPathItem_6" data-name="type &lt;CompoundPathItem&gt;" d="M401.6077,26.9487a21.4109,21.4109,0,0,1-1.2394,4.5578l-3.2616,8.439h-7.4829L374.4884.5619h7.8762L392.6058,27.23a24.5361,24.5361,0,0,1,1.2375,4.5578,21.3727,21.3727,0,0,1,1.1817-4.5009l2.6427-6.7514L389.9612.5619h7.4251l3.0957,8.2144a26.0549,26.0549,0,0,1,1.1816,4.3882,21.4919,21.4919,0,0,1,1.1816-4.3882L405.939.5619h7.427l-7.7084,19.9737,2.6446,6.7514a21.4825,21.4825,0,0,1,1.1816,4.5009,20.7147,20.7147,0,0,1,1.2375-4.5578L420.9607.5619h7.8762L413.7033,39.9455H406.22l-3.2634-8.439a21.5031,21.5031,0,0,1-1.2375-4.5578Z" style="fill: #185b78"/>
      <path id="type_CompoundPathItem_7" data-name="type &lt;CompoundPathItem&gt;" d="M431.2019,30.0993a5.1761,5.1761,0,1,1-5.1756,5.1766A5.2363,5.2363,0,0,1,431.2019,30.0993Z" style="fill: #185b78"/>
      <path id="type_CompoundPathItem_8" data-name="type &lt;CompoundPathItem&gt;" d="M457.3092,39.9455V.5619h12.2652c6.75,0,10.2394,3.9949,10.2394,9.1715a7.9166,7.9166,0,0,1-4.2754,7.37c5.006,1.6876,8.1576,5.457,8.1576,10.6895,0,6.8641-4.4451,12.1525-14.854,12.1525Zm11.1395-25.2611c4.6687,0,5.6266-8.3831,0-8.3831h-3.1516v8.3831Zm1.4071,18.6783c7.9321,0,7.5389-11.4209.056-11.4209h-4.6147V33.3627Z" style="fill: #185b78"/>
      <path id="type_CompoundPathItem_9" data-name="type &lt;CompoundPathItem&gt;" d="M510.1405,26.4427V.5619h8.1017V25.9367c0,10.2394-6.5268,14.5716-13.6705,14.5716-7.09,0-13.6165-4.3322-13.6165-14.5716V.5619h8.1017V26.4427c0,4.1636,2.3632,6.6386,5.5148,6.6386C507.7773,33.0813,510.1405,30.6063,510.1405,26.4427Z" style="fill: #185b78"/>
      <path id="type_CompoundPathItem_10" data-name="type &lt;CompoundPathItem&gt;" d="M532.4793,39.9455V7.9889H524.94V.5619H548.12v7.427h-7.5388V39.9455Z" style="fill: #185b78"/>
      <path id="type_CompoundPathItem_11" data-name="type &lt;CompoundPathItem&gt;" d="M555.7182,39.9455V.5619h7.988V32.6312h13.896v7.3143Z" style="fill: #185b78"/>
      <path id="type_CompoundPathItem_12" data-name="type &lt;CompoundPathItem&gt;" d="M584.6378,39.9455V.5619h23.9676V7.7075h-15.98v7.8771h11.1973v7.0887H592.6258V32.8h15.98v7.1456Z" style="fill: #185b78"/>
      <path id="type_CompoundPathItem_13" data-name="type &lt;CompoundPathItem&gt;" d="M617.3277,39.9455V.5619h14.3471c7.7624,0,12.7144,5.0079,12.7144,12.9409,0,5.0628-2.0259,8.8332-5.457,10.9709l6.75,15.4718h-8.7763l-5.5129-13.5587h-6.0777V39.9455Zm19.3531-26.4427c0-3.6008-2.3055-5.6266-6.2454-5.6266h-5.12V19.0725h5.12C634.3176,19.0725,636.6808,17.1035,636.6808,13.5028Z" style="fill: #185b78"/>
      <path id="type_CompoundPathItem_14" data-name="type &lt;CompoundPathItem&gt;" d="M190.7445,83.4227V57.4739h13.6426v4.8923H196.01v5.006h5.7086v4.8923H196.01V83.4227Z" style="fill: #185b78"/>
      <path id="type_CompoundPathItem_15" data-name="type &lt;CompoundPathItem&gt;" d="M231.8418,70.4492A13.3267,13.3267,0,1,1,245.188,83.7936,13.3524,13.3524,0,0,1,231.8418,70.4492Zm21.1664,0c0-4.8941-3.3361-8.342-7.82-8.342-4.5233,0-7.8594,3.4851-7.8594,8.342,0,4.93,3.3361,8.3775,7.8594,8.3775C249.6721,78.8267,253.0082,75.3416,253.0082,70.4492Z" style="fill: #185b78"/>
      <path id="type_CompoundPathItem_16" data-name="type &lt;CompoundPathItem&gt;" d="M301.3051,74.5252V57.4739h5.34V74.1916c0,6.7486-4.3015,9.602-9.0093,9.602-4.6705,0-8.97-2.8534-8.97-9.602V57.4739h5.3378V74.5252c0,2.7435,1.5562,4.3761,3.6324,4.3761C299.7489,78.9013,301.3051,77.2687,301.3051,74.5252Z" style="fill: #185b78"/>
      <path id="type_CompoundPathItem_17" data-name="type &lt;CompoundPathItem&gt;" d="M356.7624,83.4227h-5.0041V77.7514L344.417,67.6686a19.62,19.62,0,0,1-1.1853-1.929s.1118,1.2617.1118,2.2626V83.4227h-4.8941V57.4739h4.8569L350.83,68.2612c.4454.7045.8908,1.519,1.0027,1.7053,0-.1118-.0746-1.15-.0746-2.0016V57.4739h5.0041Z" style="fill: #185b78"/>
      <path id="type_CompoundPathItem_18" data-name="type &lt;CompoundPathItem&gt;" d="M388.7479,83.4227V57.4739h8.1538c8.23,0,13.3835,3.7443,13.3835,12.6417,0,8.4875-5.1159,13.3071-12.3454,13.3071Zm16.2-13.3443c0-5.7459-2.7807-7.7122-8.0458-7.7122h-2.8161V78.5677h3.707C402.5,78.5677,404.9475,75.3416,404.9475,70.0784Z" style="fill: #185b78"/>
      <path id="type_CompoundPathItem_19" data-name="type &lt;CompoundPathItem&gt;" d="M452.6331,77.2687h-7.7849l-1.8153,6.154H437.397l8.3775-25.9488h5.895l8.3775,25.9488h-5.6341Zm-6.56-4.1506H451.41l-.779-2.7807c-.7045-2.5589-1.5935-5.5986-1.89-7.2667a67.7421,67.7421,0,0,1-1.8544,7.2667Z" style="fill: #185b78"/>
      <path id="type_CompoundPathItem_20" data-name="type &lt;CompoundPathItem&gt;" d="M490.644,83.4227V62.3662h-4.9669V57.4739H500.95v4.8923h-4.9668V83.4227Z" style="fill: #185b78"/>
      <path id="type_CompoundPathItem_21" data-name="type &lt;CompoundPathItem&gt;" d="M529.7582,83.4227V79.0485h3.2261V61.8854h-3.2261V57.4739h11.7527v4.4115h-3.2261V79.0485h3.2261v4.3742Z" style="fill: #185b78"/>
      <path id="type_CompoundPathItem_22" data-name="type &lt;CompoundPathItem&gt;" d="M570.3094,70.4492a13.3276,13.3276,0,1,1,13.3462,13.3444A13.3537,13.3537,0,0,1,570.3094,70.4492Zm21.1683,0c0-4.8941-3.3361-8.342-7.8221-8.342-4.5233,0-7.8594,3.4851-7.8594,8.342,0,4.93,3.3361,8.3775,7.8594,8.3775C588.1416,78.8267,591.4777,75.3416,591.4777,70.4492Z" style="fill: #185b78"/>
      <path id="type_CompoundPathItem_23" data-name="type &lt;CompoundPathItem&gt;" d="M645.72,83.4227h-5.0041V77.7514l-7.3394-10.0828a19.8,19.8,0,0,1-1.1872-1.929s.1118,1.2617.1118,2.2626V83.4227h-4.8923V57.4739h4.855L639.79,68.2612c.4454.7045.889,1.519,1.0008,1.7053,0-.1118-.0745-1.15-.0745-2.0016V57.4739H645.72Z" style="fill: #185b78"/>
    </g>
  </g>
</svg>
