<svg id="Layer_1" data-name="Layer 1" xmlns="http://www.w3.org/2000/svg" viewBox="0 0 432 234.751">
  <g>
    <polygon id="logoMark" points="190.221 0 190.221 75.556 86.317 75.556 86.317 151.112 0 151.112 0 234.751 432 234.751 432 0 190.221 0" style="fill: #185b78"/>
    <path id="fullLogo" d="M227.0074,65.9463V24.129h8.4835V58.18h14.7552v7.766Z" style="fill: #fff"/>
    <path id="fullLogo-2" data-name="fullLogo" d="M256.8188,65.9463V24.129h25.4485v7.5873h-16.965v8.3631H277.19v7.5272H265.3023V58.36h16.965v7.5864Z" style="fill: #fff"/>
    <path id="fullLogo-3" data-name="fullLogo" d="M315.8436,52.1464a22.7737,22.7737,0,0,1-1.3145,4.8388l-3.4641,8.9611h-7.9456L287.05,24.129h8.3631l10.8718,28.3164a26.005,26.005,0,0,1,1.3145,4.8388,22.81,22.81,0,0,1,1.2544-4.78l2.8078-7.168L303.4767,24.129h7.8873l3.2854,8.7223a27.828,27.828,0,0,1,1.2544,4.6592,22.779,22.779,0,0,1,1.2544-4.6592l3.2854-8.7223h7.8854l-8.1844,21.2076,2.8077,7.168a22.81,22.81,0,0,1,1.2544,4.78,22.0256,22.0256,0,0,1,1.3145-4.8388L336.3931,24.129h8.3631l-16.068,41.8173h-7.9456l-3.4659-8.9611a22.8823,22.8823,0,0,1-1.3146-4.8388Z" style="fill: #fff"/>
    <path id="fullLogo-4" data-name="fullLogo" d="M349.42,65.9463V58.8968h5.1979V31.2377H349.42V24.129h18.9377v7.1087H363.16V58.8968h5.198v7.0495Z" style="fill: #fff"/>
    <path id="fullLogo-5" data-name="fullLogo" d="M373.7362,58.4793l6.87-4.899c1.6718,3.2855,4.3009,5.0184,7.3475,5.0184a4.3641,4.3641,0,0,0,4.6583-4.4213c0-6.2126-16.1281-8.6019-16.1281-19.8931,0-6.332,5.3766-10.7524,11.2893-10.7524a11.836,11.836,0,0,1,10.396,5.5553l-5.7358,5.0777c-1.0757-1.6126-2.569-2.867-4.301-2.867a2.95,2.95,0,0,0-3.0466,3.0466c0,5.2572,16.07,7.9456,16.07,19.7135,0,7.1689-5.4951,12.4261-13.262,12.4261C381.9789,66.4841,376.5439,64.0346,373.7362,58.4793Z" style="fill: #fff"/>
    <path id="fullLogo-6" data-name="fullLogo" d="M147.3694,125.8918a22.8008,22.8008,0,0,1-1.3136,4.8388l-3.4651,8.9611h-7.9455l-16.07-41.8173h8.364l10.8719,28.3164a25.9723,25.9723,0,0,1,1.3145,4.8388,22.8176,22.8176,0,0,1,1.2544-4.78l2.8077-7.167-8.1844-21.2077H142.89l3.2855,8.7223a27.644,27.644,0,0,1,1.2543,4.6592,22.8961,22.8961,0,0,1,1.2544-4.6592l3.2855-8.7223h7.8854l-8.1835,21.2077,2.8077,7.167a22.8176,22.8176,0,0,1,1.2544,4.78,21.9937,21.9937,0,0,1,1.3136-4.8388L167.92,97.8744h8.363l-16.0689,41.8173h-7.9455l-3.4651-8.9611a22.8619,22.8619,0,0,1-1.3145-4.8388Z" style="fill: #fff"/>
    <path id="fullLogo-7" data-name="fullLogo" d="M177.8991,129.2374a5.4961,5.4961,0,1,1-5.4961,5.4952A5.5586,5.5586,0,0,1,177.8991,129.2374Z" style="fill: #fff"/>
    <path id="fullLogo-8" data-name="fullLogo" d="M205.0222,139.6917V97.8744h13.0223c7.1689,0,10.8718,4.2417,10.8718,9.7378a8.4038,8.4038,0,0,1-4.54,7.8253c5.3165,1.7922,8.6621,5.7941,8.6621,11.35,0,7.2892-4.7184,12.9047-15.7708,12.9047ZM216.85,112.8686c4.9573,0,5.9729-8.901,0-8.901h-3.3456v8.901Zm1.4932,19.8329c8.4233,0,8.0039-12.1262.0584-12.1262h-4.8972v12.1262Z" style="fill: #fff"/>
    <path id="fullLogo-9" data-name="fullLogo" d="M261.417,125.3539V97.8744h8.6037v26.9417c0,10.8718-6.93,15.4718-14.5164,15.4718-7.5281,0-14.4581-4.6-14.4581-15.4718V97.8744H249.65v27.48c0,4.4213,2.5087,7.0486,5.8543,7.0486C258.9082,132.4025,261.417,129.7752,261.417,125.3539Z" style="fill: #fff"/>
    <path id="fullLogo-10" data-name="fullLogo" d="M284.24,139.6917V105.76h-8.0039V97.8744h24.6116V105.76h-8.0058v33.9319Z" style="fill: #fff"/>
    <path id="fullLogo-11" data-name="fullLogo" d="M306.2262,139.6917V97.8744h8.4816v34.05h14.7571v7.7669Z" style="fill: #fff"/>
    <path id="fullLogo-12" data-name="fullLogo" d="M336.0376,139.6917V97.8744H361.486v7.5873H344.521v8.3631h11.8873v7.5272H344.521v10.7533h16.965v7.5864Z" style="fill: #fff"/>
    <path id="fullLogo-13" data-name="fullLogo" d="M370.4489,139.6917V97.8744h15.233c8.2446,0,13.5009,5.3165,13.5009,13.74,0,5.3766-2.15,9.3786-5.7942,11.6485l7.1689,16.429h-9.32l-5.8543-14.3979h-6.4506v14.3979Zm20.55-28.0775c0-3.8233-2.4486-5.9738-6.631-5.9738h-5.4351v11.8883h5.4351C388.49,117.5287,390.9984,115.4375,390.9984,111.6142Z" style="fill: #fff"/>
    <path id="fullLogo-14" data-name="fullLogo" d="M36.7868,213.4371V171.62H58.77v7.8854H45.2693v8.064h9.2v7.8855h-9.2v17.9823Z" style="fill: #fff"/>
    <path id="fullLogo-15" data-name="fullLogo" d="M61.7585,192.5285a21.4761,21.4761,0,1,1,21.5057,21.5048A21.5183,21.5183,0,0,1,61.7585,192.5285Zm34.1114,0c0-7.8854-5.3766-13.4408-12.6057-13.4408-7.2874,0-12.664,5.6137-12.664,13.4408,0,7.9456,5.3766,13.5009,12.664,13.5009C90.4933,206.0294,95.87,200.4139,95.87,192.5285Z" style="fill: #fff"/>
    <path id="fullLogo-16" data-name="fullLogo" d="M132.4929,199.0994V171.62h8.6028v26.9416c0,10.8718-6.93,15.4718-14.5164,15.4718-7.5272,0-14.4572-4.6-14.4572-15.4718V171.62h8.6028v27.48c0,4.4213,2.5088,7.0485,5.8544,7.0485C129.9841,206.1479,132.4929,203.5207,132.4929,199.0994Z" style="fill: #fff"/>
    <path id="fullLogo-17" data-name="fullLogo" d="M180.406,213.4371h-8.0649v-9.14l-11.8282-16.25a31.4838,31.4838,0,0,1-1.9116-3.1049s.18,2.0311.18,3.6428v24.8522h-7.8863V171.62h7.8261l12.1271,17.3843c.7166,1.1341,1.434,2.4486,1.6127,2.7476,0-.1787-.1194-1.8524-.1194-3.2271V171.62h8.0649Z" style="fill: #fff"/>
    <path id="fullLogo-18" data-name="fullLogo" d="M190.5641,213.4371V171.62h13.1417c13.2612,0,21.5659,6.033,21.5659,20.3707,0,13.68-8.2445,21.4465-19.8931,21.4465ZM216.67,191.9305c0-9.26-4.4805-12.4252-12.964-12.4252h-4.54V205.61H205.14C212.7271,205.61,216.67,200.4139,216.67,191.9305Z" style="fill: #fff"/>
    <path id="fullLogo-19" data-name="fullLogo" d="M250.1258,203.5207H237.58l-2.9263,9.9164h-9.0814L239.0735,171.62h9.4989l13.5009,41.8172h-9.08ZM239.553,196.83h8.6019l-1.2544-4.4815c-1.1358-4.1205-2.5689-9.02-3.0466-11.7087a108.8294,108.8294,0,0,1-2.9882,11.7087Z" style="fill: #fff"/>
    <path id="fullLogo-20" data-name="fullLogo" d="M269.8421,213.4371V179.5053h-8.004V171.62H286.45v7.8854H278.444v33.9318Z" style="fill: #fff"/>
    <path id="fullLogo-21" data-name="fullLogo" d="M291.8282,213.4371v-7.05h5.198V178.7286h-5.198V171.62H310.766v7.1087h-5.198v27.6582h5.198v7.05Z" style="fill: #fff"/>
    <path id="fullLogo-22" data-name="fullLogo" d="M317.3387,192.5285a21.4757,21.4757,0,1,1,21.5048,21.5048A21.5175,21.5175,0,0,1,317.3387,192.5285Zm34.1105,0c0-7.8854-5.3767-13.4408-12.6057-13.4408-7.2874,0-12.6641,5.6137-12.6641,13.4408,0,7.9456,5.3767,13.5009,12.6641,13.5009C346.0725,206.0294,351.4492,200.4139,351.4492,192.5285Z" style="fill: #fff"/>
    <path id="fullLogo-23" data-name="fullLogo" d="M397.5711,213.4371h-8.0659v-9.14l-11.8272-16.25a31.5672,31.5672,0,0,1-1.9126-3.1049s.18,2.0311.18,3.6428v24.8522h-7.8872V171.62h7.8271l12.1262,17.3843c.7165,1.1341,1.4348,2.4486,1.6135,2.7476,0-.1787-.12-1.8524-.12-3.2271V171.62h8.0659Z" style="fill: #fff"/>
  </g>
</svg>
